<svg width="77" height="75" viewBox="0 0 77 75" fill="none" xmlns="http://www.w3.org/2000/svg">
<rect width="77" height="75" rx="8" fill="url(#paint0_radial_1_5)"/>
<path d="M25.508 56C25.148 56 24.842 55.874 24.59 55.622C24.338 55.37 24.212 55.064 24.212 54.704V19.55C24.212 19.154 24.338 18.83 24.59 18.578C24.842 18.326 25.148 18.2 25.508 18.2H41.168C44.084 18.2 46.46 18.65 48.296 19.55C50.132 20.414 51.482 21.62 52.346 23.168C53.246 24.716 53.696 26.516 53.696 28.568C53.696 29.936 53.444 31.142 52.94 32.186C52.472 33.194 51.878 34.022 51.158 34.67C50.474 35.318 49.79 35.822 49.106 36.182C50.51 36.83 51.752 37.91 52.832 39.422C53.912 40.934 54.452 42.734 54.452 44.822C54.452 46.982 53.966 48.908 52.994 50.6C52.022 52.292 50.582 53.624 48.674 54.596C46.766 55.532 44.408 56 41.6 56H25.508ZM31.718 50.276H40.736C42.68 50.276 44.156 49.754 45.164 48.71C46.172 47.63 46.676 46.334 46.676 44.822C46.676 43.238 46.154 41.924 45.11 40.88C44.102 39.836 42.644 39.314 40.736 39.314H31.718V50.276ZM31.718 33.698H40.196C42.104 33.698 43.526 33.248 44.462 32.348C45.434 31.412 45.92 30.206 45.92 28.73C45.92 27.218 45.434 26.048 44.462 25.22C43.526 24.356 42.104 23.924 40.196 23.924H31.718V33.698Z" fill="white"/>
<defs>
<radialGradient id="paint0_radial_1_5" cx="0" cy="0" r="1" gradientUnits="userSpaceOnUse" gradientTransform="translate(39 38) rotate(63.7334) scale(42.9331 44.078)">
<stop stop-color="#6366F2"/>
<stop offset="1" stop-color="#7C3AED"/>
</radialGradient>
</defs>
</svg>
