<svg version="1.1" id="CARD" xmlns="http://www.w3.org/2000/svg" xmlns:xlink="http://www.w3.org/1999/xlink" x="0px" y="0px" viewBox="0 0 240 42" style="enable-background:new 0 0 240 42;" xml:space="preserve">
 <style type="text/css">
  .st0{fill:#6428B4;}
 </style>
 <g>
  <g id="LOGO_7_">
   <g id="LOGO_8_">
    <path class="st0" d="M228,7.5V6h-19.5c-2.5,0-4.5,2-4.5,4.5v21c0,2.5,2,4.5,4.5,4.5h15c2.5,0,4.5-2,4.5-4.5V30h-17.2
				c-0.4,0-0.8-0.4-0.8-0.8V24h13.5c2.5,0,4.5-2,4.5-4.5V18h-18v-5.2c0-0.4,0.4-0.8,0.8-0.8h12.7C226,12,228,10,228,7.5z">
    </path>
    <path class="st0" d="M198,16.4C197.9,10.6,193,6,187.2,6h-14.7c-2.5,0-4.5,2-4.5,4.5V36h1.5c2.5,0,4.5-2,4.5-4.5V27h11.9l4.3,7.5
				c0.5,0.9,1.5,1.5,2.6,1.5h5.2l-5.8-10.1C195.7,24.2,198.1,20.5,198,16.4z M174.9,12h12.5c2.4,0,4.4,1.9,4.6,4.3
				c0.1,2.6-1.9,4.7-4.5,4.7H174v-8.1C174,12.4,174.4,12,174.9,12z">
    </path>
    <path class="st0" d="M76.8,7.2L66.6,17.4c-0.4,0.4-0.9,0.4-1.3,0L55.2,7.2c-0.8-0.8-1.9-1.2-3-1.2l0,0C49.9,6,48,7.9,48,10.2V36
				h1.5c2.5,0,4.5-2,4.5-4.5V15.4c0-0.4,0.4-0.5,0.7-0.3l8.1,8.1c1.8,1.8,4.6,1.8,6.4,0l8.1-8.1c0.3-0.3,0.7-0.1,0.7,0.3V36h1.5
				c2.5,0,4.5-2,4.5-4.5V10.2C84,7.9,82.1,6,79.8,6h-0.1C78.6,6,77.6,6.4,76.8,7.2z">
    </path>
    <path class="st0" d="M37.5,36H36V10.5C36,8,38,6,40.5,6H42v25.5C42,34,40,36,37.5,36z">
    </path>
    <path class="st0" d="M19.2,6H4.5C2,6,0,8,0,10.5V36h1.5C4,36,6,34,6,31.5V27h13.5c5.7,0,10.4-4.6,10.5-10.3
				C30.1,10.8,25.1,6,19.2,6z M19.4,21H6v-8.1C6,12.4,6.4,12,6.9,12h12.6c2.6,0,4.6,2.1,4.5,4.7C23.9,19.1,21.8,21,19.4,21z">
    </path>
   </g>
   <path class="st0" d="M147,6c-5.2,0-9.8,2.7-12.5,6.7l-11,16.6c-2.7,4-7.3,6.7-12.5,6.7c-8.3,0-15-6.7-15-15s6.7-15,15-15
			c5.2,0,9.7,2.6,12.4,6.6l2,3l3.6-5.4l-0.5-0.8C124.7,3.7,118.3,0,111,0C99.4,0,90,9.4,90,21s9.4,21,21,21c7.3,0,13.8-3.7,17.5-9.4
			l4.1-6.2l1.9,2.9c2.7,4,7.3,6.7,12.5,6.7c8.3,0,15-6.7,15-15S155.3,6,147,6z M147,30c-3.1,0-5.9-1.6-7.5-4.1l-3.3-4.9l3.3-5
			c1.6-2.4,4.4-4,7.5-4c5,0,9,4,9,9S152,30,147,30z">
   </path>
  </g>
  <g id="_x28_R_x29__9_">
   <path class="st0" d="M238.4,8.5c0-0.5-0.5-1-1-1H236c-0.2,0-0.4,0.2-0.4,0.4v2.5h0.3c0.2,0,0.3-0.1,0.3-0.3V9.6h1.1l0.5,0.8
			l0.1,0.1h0.6l-0.6-1C238.2,9.3,238.4,8.9,238.4,8.5z M236.2,8.1h1.2c0.2,0,0.4,0.2,0.4,0.4c0,0.3-0.2,0.5-0.4,0.5h-1.3V8.2
			C236.1,8.2,236.2,8.1,236.2,8.1z">
   </path>
   <path class="st0" d="M237,6.6c1.3,0,2.4,1.1,2.4,2.4s-1.1,2.4-2.4,2.4s-2.4-1.1-2.4-2.4S235.7,6.6,237,6.6 M237,6
			c-1.7,0-3,1.3-3,3s1.3,3,3,3s3-1.3,3-3S238.7,6,237,6L237,6z">
   </path>
  </g>
 </g>
</svg>